<svg width="214" height="48" viewBox="0 0 214 48" fill="none" xmlns="http://www.w3.org/2000/svg">
<g clip-path="url(#clip0)">
<path d="M6.83341 4.92899H0V0.440613H18.9341V4.92899H12.1007V26.1913H6.83341V4.92899Z" fill="#5E7998"/>
<path d="M30.6265 0.440613H35.8889V11.9185H45.0277V0.440613H50.2901V26.1913H45.0277V16.4069H35.8889V26.1913H30.6265V0.440613Z" fill="#5E7998"/>
<path d="M69.2532 0.440613V26.1913H63.9907V0.440613H69.2532Z" fill="#5E7998"/>
<path d="M81.675 19.3485H87.0105C87.1953 21.1889 88.4744 22.0699 90.2642 22.0699C92.054 22.0699 93.2262 21.0029 93.2262 19.3485C93.2262 17.6941 92.1999 16.7348 88.7273 15.3007C83.6302 13.1862 81.821 10.7584 81.821 6.98468C81.821 2.75572 84.8899 -0.00485229 89.8265 -0.00485229C94.3983 -0.00485229 97.832 2.71656 97.832 7.20494H92.4966C92.4966 5.62398 91.4753 4.55695 89.7535 4.55695C87.9978 4.55695 87.1564 5.62398 87.1564 6.91126C87.1564 8.45797 88.2166 9.35858 91.7963 10.9004C96.9128 13.1079 98.5567 15.423 98.5567 19.0304C98.5567 23.5726 95.3418 26.6268 90.1864 26.6268C85.0358 26.6366 81.9669 23.4698 81.675 19.3485Z" fill="#5E7998"/>
<path d="M124.314 26.1913H115.759V0.440613H124.314C132.612 0.440613 138.205 5.14925 138.205 13.3184C138.205 21.5218 132.612 26.1913 124.314 26.1913ZM124.348 4.92899H121.022V21.7029H124.348C129.139 21.7029 132.865 18.9081 132.865 13.3527C132.865 7.72383 129.139 4.92899 124.348 4.92899Z" fill="#5E7998"/>
<path d="M201.899 4.92899H195.066V0.440613H214V4.92899H207.162V26.1913H201.899V4.92899Z" fill="#5E7998"/>
<path d="M116.046 36.0327H118.303V45.1563H122.71V47.0848H116.046V36.0327Z" fill="#F46663"/>
<path d="M150.087 45.4468H145.35L144.722 47.0914H142.368L146.809 36.0393H148.628L153.068 47.0914H150.714L150.087 45.4468ZM146.07 43.5526H149.362L147.714 39.26L146.07 43.5526Z" fill="#F46663"/>
<path d="M171.968 36.0393H175.782C178.262 36.0393 179.638 37.3952 179.638 39.1964C179.638 40.0823 179.181 41.0759 178.243 41.5018C179.371 41.8493 180.139 42.8429 180.139 44.0127C180.139 46.0195 178.885 47.0914 175.981 47.0914H171.964V36.0393H171.968ZM175.704 37.9336H174.23V40.7284H175.704C176.929 40.7284 177.382 40.2096 177.382 39.3236C177.382 38.4377 176.929 37.9336 175.704 37.9336ZM174.23 42.6226V45.1972H176.176C177.367 45.1972 177.81 44.7224 177.81 43.9197C177.81 43.1121 177.372 42.6275 176.176 42.6275H174.23V42.6226Z" fill="#F46663"/>
<path d="M201 38.8487C201 37.0622 202.254 35.8483 204.531 35.8483C205.581 35.8483 206.666 36.1322 207.478 36.6217L206.787 38.4229C206.223 38.046 205.469 37.8062 204.749 37.8062C203.762 37.8062 203.29 38.1684 203.29 38.7361C203.29 39.3529 203.699 39.7248 205.187 40.4101C207.108 41.296 208.027 42.2701 208.027 43.9293C208.027 45.9655 206.646 47.2773 204.059 47.2773C202.916 47.2773 201.69 46.9444 200.766 46.3767L201.457 44.5461C202.162 45.0355 203.12 45.3194 203.966 45.3194C205.066 45.3194 205.742 44.8789 205.742 44.1104C205.742 43.2979 205.168 42.8378 203.82 42.2505C201.637 41.296 201 40.2779 201 38.8487Z" fill="#F46663"/>
<path d="M166.677 21.1009C171.071 21.1009 174.634 17.5158 174.634 13.0933C174.634 8.67079 171.071 5.08566 166.677 5.08566C162.282 5.08566 158.72 8.67079 158.72 13.0933C158.72 17.5158 162.282 21.1009 166.677 21.1009Z" fill="#F46663"/>
<path d="M178.962 0.220337H172.411L182.235 13.0932L172.411 25.971H178.962L188.787 13.0932L178.962 0.220337Z" fill="#9FACCC"/>
<path d="M154.391 0.220337H160.942L151.118 13.0932L160.942 25.971H154.391L144.567 13.0932L154.391 0.220337Z" fill="#9FACCC"/>
</g>
<defs>
<clipPath id="clip0">
<rect width="214" height="48" fill="white"/>
</clipPath>
</defs>
</svg>
